{
  "accessors": [
    {
      "bufferView": 2,
      "componentType": 5126,
      "count": 65532,
      "max": [
        39.367984771728516,
        53.261104583740234,
        -21.806957244873047
      ],
      "min": [
        -37.958744049072266,
        -45.82722854614258,
        -29.746789932250977
      ],
      "type": "VEC3"
    },
    {
      "bufferView": 2,
      "byteOffset": 786384,
      "componentType": 5126,
      "count": 65532,
      "max": [
        0.9999597668647766,
        0.9999310374259949,
        0.9999999403953552
      ],
      "min": [
        -0.999711811542511,
        -0.9997312426567078,
        -0.9994359612464905
      ],
      "type": "VEC3"
    },
    {
      "bufferView": 1,
      "componentType": 5126,
      "count": 65532,
      "max": [
        0.9994008541107178,
        0.9995952844619751
      ],
      "min": [
        0.012496454641222954,
        0.00036779820220544934
      ],
      "type": "VEC2"
    },
    {
      "bufferView": 0,
      "componentType": 5125,
      "count": 289776,
      "type": "SCALAR"
    },
    {
      "bufferView": 2,
      "byteOffset": 1572768,
      "componentType": 5126,
      "count": 65534,
      "max": [
        41.20482635498047,
        52.88327407836914,
        -22.23440933227539
      ],
      "min": [
        -45.64844512939453,
        -55.55226516723633,
        -29.555404663085938
      ],
      "type": "VEC3"
    },
    {
      "bufferView": 2,
      "byteOffset": 2359176,
      "componentType": 5126,
      "count": 65534,
      "max": [
        0.999993622303009,
        0.9999310374259949,
        0.9999999403953552
      ],
      "min": [
        -0.9997384548187256,
        -0.9989708065986633,
        -0.9995549321174622
      ],
      "type": "VEC3"
    },
    {
      "bufferView": 1,
      "byteOffset": 524256,
      "componentType": 5126,
      "count": 65534,
      "max": [
        0.999617338180542,
        0.9995920658111572
      ],
      "min": [
        0.0003677976201288402,
        0.00036779820220544934
      ],
      "type": "VEC2"
    },
    {
      "bufferView": 0,
      "byteOffset": 1159104,
      "componentType": 5125,
      "count": 263256,
      "type": "SCALAR"
    },
    {
      "bufferView": 2,
      "byteOffset": 3145584,
      "componentType": 5126,
      "count": 65532,
      "max": [
        41.148780822753906,
        52.75080871582031,
        -22.800554275512695
      ],
      "min": [
        -47.41470718383789,
        -56.452754974365234,
        -29.39540672302246
      ],
      "type": "VEC3"
    },
    {
      "bufferView": 2,
      "byteOffset": 3931968,
      "componentType": 5126,
      "count": 65532,
      "max": [
        0.9998393654823303,
        0.9998576045036316,
        0.9999997615814209
      ],
      "min": [
        -0.9999508261680603,
        -0.9995453357696533,
        -0.9991199970245361
      ],
      "type": "VEC3"
    },
    {
      "bufferView": 1,
      "byteOffset": 1048528,
      "componentType": 5126,
      "count": 65532,
      "max": [
        0.9996310472488403,
        0.9996305108070374
      ],
      "min": [
        0.00036779820220544934,
        0.00036779820220544934
      ],
      "type": "VEC2"
    },
    {
      "bufferView": 0,
      "byteOffset": 2212128,
      "componentType": 5125,
      "count": 254883,
      "type": "SCALAR"
    },
    {
      "bufferView": 2,
      "byteOffset": 4718352,
      "componentType": 5126,
      "count": 65532,
      "max": [
        36.64345932006836,
        53.170345306396484,
        -22.068397521972656
      ],
      "min": [
        -46.77986145019531,
        -56.93894958496094,
        -29.5821475982666
      ],
      "type": "VEC3"
    },
    {
      "bufferView": 2,
      "byteOffset": 5504736,
      "componentType": 5126,
      "count": 65532,
      "max": [
        0.9996638894081116,
        0.999980092048645,
        0.9999997019767761
      ],
      "min": [
        -0.9993797540664673,
        -0.9998828768730164,
        -0.9981012344360352
      ],
      "type": "VEC3"
    },
    {
      "bufferView": 1,
      "byteOffset": 1572784,
      "componentType": 5126,
      "count": 65532,
      "max": [
        0.9996305108070374,
        0.9996289610862732
      ],
      "min": [
        0.0003677976201288402,
        0.00036779820220544934
      ],
      "type": "VEC2"
    },
    {
      "bufferView": 0,
      "byteOffset": 3231660,
      "componentType": 5125,
      "count": 252297,
      "type": "SCALAR"
    },
    {
      "bufferView": 2,
      "byteOffset": 6291120,
      "componentType": 5126,
      "count": 65532,
      "max": [
        35.84722137451172,
        53.984588623046875,
        -23.265783309936523
      ],
      "min": [
        -47.047706604003906,
        -57.71599197387695,
        -29.615995407104492
      ],
      "type": "VEC3"
    },
    {
      "bufferView": 2,
      "byteOffset": 7077504,
      "componentType": 5126,
      "count": 65532,
      "max": [
        0.9997519254684448,
        0.9999942779541016,
        0.9999997019767761
      ],
      "min": [
        -0.9999500513076782,
        -0.9996162056922913,
        -0.9986352324485779
      ],
      "type": "VEC3"
    },
    {
      "bufferView": 1,
      "byteOffset": 2097040,
      "componentType": 5126,
      "count": 65532,
      "max": [
        0.9995908141136169,
        0.9996234774589539
      ],
      "min": [
        0.06375139951705933,
        0.00036779820220544934
      ],
      "type": "VEC2"
    },
    {
      "bufferView": 0,
      "byteOffset": 4240848,
      "componentType": 5125,
      "count": 246522,
      "type": "SCALAR"
    },
    {
      "bufferView": 2,
      "byteOffset": 7863888,
      "componentType": 5126,
      "count": 65532,
      "max": [
        36.23868179321289,
        54.331085205078125,
        -22.382898330688477
      ],
      "min": [
        -46.58137130737305,
        -57.60072708129883,
        -29.656776428222656
      ],
      "type": "VEC3"
    },
    {
      "bufferView": 2,
      "byteOffset": 8650272,
      "componentType": 5126,
      "count": 65532,
      "max": [
        0.9999229907989502,
        0.9999769330024719,
        0.9999997019767761
      ],
      "min": [
        -0.9998564720153809,
        -0.9997817873954773,
        -0.9998310804367065
      ],
      "type": "VEC3"
    },
    {
      "bufferView": 1,
      "byteOffset": 2621296,
      "componentType": 5126,
      "count": 65532,
      "max": [
        0.9996288418769836,
        0.9996315240859985
      ],
      "min": [
        0.064962238073349,
        0.00036779820220544934
      ],
      "type": "VEC2"
    },
    {
      "bufferView": 0,
      "byteOffset": 5226936,
      "componentType": 5125,
      "count": 225108,
      "type": "SCALAR"
    },
    {
      "bufferView": 2,
      "byteOffset": 9436656,
      "componentType": 5126,
      "count": 65532,
      "max": [
        36.00883865356445,
        53.90660858154297,
        -21.69499969482422
      ],
      "min": [
        -45.78609848022461,
        -58.35108947753906,
        -30.024389266967773
      ],
      "type": "VEC3"
    },
    {
      "bufferView": 2,
      "byteOffset": 10223040,
      "componentType": 5126,
      "count": 65532,
      "max": [
        0.9999617338180542,
        0.9999988675117493,
        0.9999996423721313
      ],
      "min": [
        -0.9997560977935791,
        -0.9999409317970276,
        -0.9983236789703369
      ],
      "type": "VEC3"
    },
    {
      "bufferView": 1,
      "byteOffset": 3145552,
      "componentType": 5126,
      "count": 65532,
      "max": [
        0.9996104836463928,
        0.999631404876709
      ],
      "min": [
        0.0003677976201288402,
        0.00036779820220544934
      ],
      "type": "VEC2"
    },
    {
      "bufferView": 0,
      "byteOffset": 6127368,
      "componentType": 5125,
      "count": 220641,
      "type": "SCALAR"
    },
    {
      "bufferView": 2,
      "byteOffset": 11009424,
      "componentType": 5126,
      "count": 65533,
      "max": [
        35.678592681884766,
        55.27659606933594,
        -24.153032302856445
      ],
      "min": [
        -42.314796447753906,
        -58.17991256713867,
        -30.268394470214844
      ],
      "type": "VEC3"
    },
    {
      "bufferView": 2,
      "byteOffset": 11795820,
      "componentType": 5126,
      "count": 65533,
      "max": [
        0.9996994733810425,
        0.9998204112052917,
        0.9999998211860657
      ],
      "min": [
        -0.9998092651367188,
        -0.9999409914016724,
        -0.9944432973861694
      ],
      "type": "VEC3"
    },
    {
      "bufferView": 1,
      "byteOffset": 3669808,
      "componentType": 5126,
      "count": 65533,
      "max": [
        0.9996224641799927,
        0.9996140599250793
      ],
      "min": [
        0.0003677976201288402,
        0.052984606474637985
      ],
      "type": "VEC2"
    },
    {
      "bufferView": 0,
      "byteOffset": 7009932,
      "componentType": 5125,
      "count": 273042,
      "type": "SCALAR"
    },
    {
      "bufferView": 2,
      "byteOffset": 12582216,
      "componentType": 5126,
      "count": 65532,
      "max": [
        33.72965621948242,
        55.23624801635742,
        -22.08588409423828
      ],
      "min": [
        -41.456722259521484,
        -60.5136604309082,
        -30.104862213134766
      ],
      "type": "VEC3"
    },
    {
      "bufferView": 2,
      "byteOffset": 13368600,
      "componentType": 5126,
      "count": 65532,
      "max": [
        0.9999422430992126,
        0.9998903274536133,
        0.9999991059303284
      ],
      "min": [
        -0.9999738931655884,
        -0.9999494552612305,
        -0.9983350038528442
      ],
      "type": "VEC3"
    },
    {
      "bufferView": 1,
      "byteOffset": 4194072,
      "componentType": 5126,
      "count": 65532,
      "max": [
        0.9996317625045776,
        0.9996214509010315
      ],
      "min": [
        0.008446517400443554,
        0.00036779820220544934
      ],
      "type": "VEC2"
    },
    {
      "bufferView": 0,
      "byteOffset": 8102100,
      "componentType": 5125,
      "count": 252198,
      "type": "SCALAR"
    },
    {
      "bufferView": 2,
      "byteOffset": 14154984,
      "componentType": 5126,
      "count": 65532,
      "max": [
        33.689369201660156,
        55.49156951904297,
        -22.193910598754883
      ],
      "min": [
        -42.025428771972656,
        -61.40397644042969,
        -30.361705780029297
      ],
      "type": "VEC3"
    },
    {
      "bufferView": 2,
      "byteOffset": 14941368,
      "componentType": 5126,
      "count": 65532,
      "max": [
        0.9999577403068542,
        0.9999327659606934,
        0.9999996423721313
      ],
      "min": [
        -0.9999738931655884,
        -0.9997405409812927,
        -0.9997687935829163
      ],
      "type": "VEC3"
    },
    {
      "bufferView": 1,
      "byteOffset": 4718328,
      "componentType": 5126,
      "count": 65532,
      "max": [
        0.9996315240859985,
        0.9996321797370911
      ],
      "min": [
        0.0003677976201288402,
        0.00036779820220544934
      ],
      "type": "VEC2"
    },
    {
      "bufferView": 0,
      "byteOffset": 9110892,
      "componentType": 5125,
      "count": 217824,
      "type": "SCALAR"
    },
    {
      "bufferView": 2,
      "byteOffset": 15727752,
      "componentType": 5126,
      "count": 65533,
      "max": [
        32.66269302368164,
        56.68962860107422,
        -21.69499969482422
      ],
      "min": [
        -30.84485626220703,
        -47.01051712036133,
        -30.836477279663086
      ],
      "type": "VEC3"
    },
    {
      "bufferView": 2,
      "byteOffset": 16514148,
      "componentType": 5126,
      "count": 65533,
      "max": [
        0.9999628067016602,
        0.9999719262123108,
        0.9999998807907104
      ],
      "min": [
        -0.9999909996986389,
        -0.9999081492424011,
        -0.9997542500495911
      ],
      "type": "VEC3"
    },
    {
      "bufferView": 1,
      "byteOffset": 5242584,
      "componentType": 5126,
      "count": 65533,
      "max": [
        0.9996309876441956,
        0.999631941318512
      ],
      "min": [
        0.0003677976201288402,
        0.010526386089622974
      ],
      "type": "VEC2"
    },
    {
      "bufferView": 0,
      "byteOffset": 9982188,
      "componentType": 5125,
      "count": 198270,
      "type": "SCALAR"
    },
    {
      "bufferView": 2,
      "byteOffset": 17300544,
      "componentType": 5126,
      "count": 65532,
      "max": [
        34.72151565551758,
        55.568111419677734,
        -22.157127380371094
      ],
      "min": [
        -43.80266571044922,
        -61.42350387573242,
        -30.218660354614258
      ],
      "type": "VEC3"
    },
    {
      "bufferView": 2,
      "byteOffset": 18086928,
      "componentType": 5126,
      "count": 65532,
      "max": [
        0.9998804330825806,
        0.9999977350234985,
        0.9999998211860657
      ],
      "min": [
        -0.9996705651283264,
        -0.9999913573265076,
        -0.9996135234832764
      ],
      "type": "VEC3"
    },
    {
      "bufferView": 1,
      "byteOffset": 5766848,
      "componentType": 5126,
      "count": 65532,
      "max": [
        0.999631404876709,
        0.9996320605278015
      ],
      "min": [
        0.0003677976201288402,
        0.0003923166368622333
      ],
      "type": "VEC2"
    },
    {
      "bufferView": 0,
      "byteOffset": 10775268,
      "componentType": 5125,
      "count": 187281,
      "type": "SCALAR"
    },
    {
      "bufferView": 2,
      "byteOffset": 18873312,
      "componentType": 5126,
      "count": 53546,
      "max": [
        35.53471374511719,
        54.0638313293457,
        -22.374513626098633
      ],
      "min": [
        -45.24681091308594,
        -59.08412551879883,
        -29.58528709411621
      ],
      "type": "VEC3"
    },
    {
      "bufferView": 2,
      "byteOffset": 19515864,
      "componentType": 5126,
      "count": 53546,
      "max": [
        0.9999597668647766,
        0.9997619390487671,
        0.9999997615814209
      ],
      "min": [
        -0.9999735951423645,
        -0.9999979138374329,
        -0.9997764229774475
      ],
      "type": "VEC3"
    },
    {
      "bufferView": 1,
      "byteOffset": 6291104,
      "componentType": 5126,
      "count": 53546,
      "max": [
        0.9996307492256165,
        0.9996317625045776
      ],
      "min": [
        0.0017843752866610885,
        0.00036779820220544934
      ],
      "type": "VEC2"
    },
    {
      "bufferView": 0,
      "byteOffset": 11524392,
      "componentType": 5125,
      "count": 118902,
      "type": "SCALAR"
    }
  ],
  "asset": {
    "extras": {
      "author": "CT Aerial Surveys (https://sketchfab.com/CTAerialSurveys)",
      "license": "CC-BY-4.0 (http://creativecommons.org/licenses/by/4.0/)",
      "source": "https://sketchfab.com/3d-models/world-war-ii-heavy-anti-aircraft-gunsite-07c1f19fa2f9404680fb88ea915df871",
      "title": "World War II Heavy Anti-aircraft gunsite"
    },
    "generator": "Sketchfab-12.67.0",
    "version": "2.0"
  },
  "bufferViews": [
    {
      "buffer": 0,
      "byteLength": 12000000,
      "name": "floatBufferViews",
      "target": 34963
    },
    {
      "buffer": 0,
      "byteLength": 6719472,
      "byteOffset": 12000000,
      "byteStride": 8,
      "name": "floatBufferViews",
      "target": 34962
    },
    {
      "buffer": 0,
      "byteLength": 20158416,
      "byteOffset": 18719472,
      "byteStride": 12,
      "name": "floatBufferViews",
      "target": 34962
    }
  ],
  "buffers": [
    {
      "byteLength": 38877888,
      "uri": "scene.bin"
    }
  ],
  "extensionsUsed": [
    "KHR_materials_unlit"
  ],
  "images": [
    {
      "uri": "textures/texture_material_baseColor.jpeg"
    }
  ],
  "materials": [
    {
      "doubleSided": true,
      "extensions": {
        "KHR_materials_unlit": {}
      },
      "name": "texture_material",
      "pbrMetallicRoughness": {
        "baseColorTexture": {
          "index": 0
        },
        "metallicFactor": 0.0
      }
    }
  ],
  "meshes": [
    {
      "name": "mesh_out_node_texture_material_0",
      "primitives": [
        {
          "attributes": {
            "NORMAL": 1,
            "POSITION": 0,
            "TEXCOORD_0": 2
          },
          "indices": 3,
          "material": 0,
          "mode": 4
        }
      ]
    },
    {
      "name": "mesh_out_node_texture_material_0",
      "primitives": [
        {
          "attributes": {
            "NORMAL": 5,
            "POSITION": 4,
            "TEXCOORD_0": 6
          },
          "indices": 7,
          "material": 0,
          "mode": 4
        }
      ]
    },
    {
      "name": "mesh_out_node_texture_material_0",
      "primitives": [
        {
          "attributes": {
            "NORMAL": 9,
            "POSITION": 8,
            "TEXCOORD_0": 10
          },
          "indices": 11,
          "material": 0,
          "mode": 4
        }
      ]
    },
    {
      "name": "mesh_out_node_texture_material_0",
      "primitives": [
        {
          "attributes": {
            "NORMAL": 13,
            "POSITION": 12,
            "TEXCOORD_0": 14
          },
          "indices": 15,
          "material": 0,
          "mode": 4
        }
      ]
    },
    {
      "name": "mesh_out_node_texture_material_0",
      "primitives": [
        {
          "attributes": {
            "NORMAL": 17,
            "POSITION": 16,
            "TEXCOORD_0": 18
          },
          "indices": 19,
          "material": 0,
          "mode": 4
        }
      ]
    },
    {
      "name": "mesh_out_node_texture_material_0",
      "primitives": [
        {
          "attributes": {
            "NORMAL": 21,
            "POSITION": 20,
            "TEXCOORD_0": 22
          },
          "indices": 23,
          "material": 0,
          "mode": 4
        }
      ]
    },
    {
      "name": "mesh_out_node_texture_material_0",
      "primitives": [
        {
          "attributes": {
            "NORMAL": 25,
            "POSITION": 24,
            "TEXCOORD_0": 26
          },
          "indices": 27,
          "material": 0,
          "mode": 4
        }
      ]
    },
    {
      "name": "mesh_out_node_texture_material_0",
      "primitives": [
        {
          "attributes": {
            "NORMAL": 29,
            "POSITION": 28,
            "TEXCOORD_0": 30
          },
          "indices": 31,
          "material": 0,
          "mode": 4
        }
      ]
    },
    {
      "name": "mesh_out_node_texture_material_0",
      "primitives": [
        {
          "attributes": {
            "NORMAL": 33,
            "POSITION": 32,
            "TEXCOORD_0": 34
          },
          "indices": 35,
          "material": 0,
          "mode": 4
        }
      ]
    },
    {
      "name": "mesh_out_node_texture_material_0",
      "primitives": [
        {
          "attributes": {
            "NORMAL": 37,
            "POSITION": 36,
            "TEXCOORD_0": 38
          },
          "indices": 39,
          "material": 0,
          "mode": 4
        }
      ]
    },
    {
      "name": "mesh_out_node_texture_material_0",
      "primitives": [
        {
          "attributes": {
            "NORMAL": 41,
            "POSITION": 40,
            "TEXCOORD_0": 42
          },
          "indices": 43,
          "material": 0,
          "mode": 4
        }
      ]
    },
    {
      "name": "mesh_out_node_texture_material_0",
      "primitives": [
        {
          "attributes": {
            "NORMAL": 45,
            "POSITION": 44,
            "TEXCOORD_0": 46
          },
          "indices": 47,
          "material": 0,
          "mode": 4
        }
      ]
    },
    {
      "name": "mesh_out_node_texture_material_0",
      "primitives": [
        {
          "attributes": {
            "NORMAL": 49,
            "POSITION": 48,
            "TEXCOORD_0": 50
          },
          "indices": 51,
          "material": 0,
          "mode": 4
        }
      ]
    }
  ],
  "nodes": [
    {
      "children": [
        1
      ],
      "matrix": [
        0.0,
        -4.9794924571293805e-18,
        0.022425640374422073,
        0.0,
        -0.022425640374422073,
        0.0,
        0.0,
        0.0,
        0.0,
        -0.022425640374422073,
        -4.9794924571293805e-18,
        0.0,
        18.952924728393555,
        51.8099594116211,
        -18.952924728393544,
        1.0
      ],
      "name": "Sketchfab_model"
    },
    {
      "children": [
        2
      ],
      "matrix": [
        1.0,
        0.0,
        0.0,
        0.0,
        0.0,
        -1.0,
        0.0,
        0.0,
        0.0,
        0.0,
        -1.0,
        0.0,
        0.0,
        0.0,
        0.0,
        1.0
      ],
      "name": "12bc16d44ed44971abca0745cc53a9d6.fbx"
    },
    {
      "children": [
        3
      ],
      "name": "RootNode"
    },
    {
      "children": [
        4,
        5,
        6,
        7,
        8,
        9,
        10,
        11,
        12,
        13,
        14,
        15,
        16
      ],
      "name": "mesh_out_node"
    },
    {
      "mesh": 0,
      "name": "mesh_out_node_texture_material_0"
    },
    {
      "mesh": 1,
      "name": "mesh_out_node_texture_material_0"
    },
    {
      "mesh": 2,
      "name": "mesh_out_node_texture_material_0"
    },
    {
      "mesh": 3,
      "name": "mesh_out_node_texture_material_0"
    },
    {
      "mesh": 4,
      "name": "mesh_out_node_texture_material_0"
    },
    {
      "mesh": 5,
      "name": "mesh_out_node_texture_material_0"
    },
    {
      "mesh": 6,
      "name": "mesh_out_node_texture_material_0"
    },
    {
      "mesh": 7,
      "name": "mesh_out_node_texture_material_0"
    },
    {
      "mesh": 8,
      "name": "mesh_out_node_texture_material_0"
    },
    {
      "mesh": 9,
      "name": "mesh_out_node_texture_material_0"
    },
    {
      "mesh": 10,
      "name": "mesh_out_node_texture_material_0"
    },
    {
      "mesh": 11,
      "name": "mesh_out_node_texture_material_0"
    },
    {
      "mesh": 12,
      "name": "mesh_out_node_texture_material_0"
    }
  ],
  "samplers": [
    {
      "magFilter": 9729,
      "minFilter": 9987,
      "wrapS": 10497,
      "wrapT": 10497
    }
  ],
  "scene": 0,
  "scenes": [
    {
      "name": "Sketchfab_Scene",
      "nodes": [
        0
      ]
    }
  ],
  "textures": [
    {
      "sampler": 0,
      "source": 0
    }
  ]
}
